{
    "asset" : {
        "generator" : "Khronos glTF Blender I/O v1.8.19",
        "version" : "2.0"
    },
    "scene" : 0,
    "scenes" : [
        {
            "name" : "Scene",
            "nodes" : [
                0
            ]
        }
    ],
    "nodes" : [
        {
            "mesh" : 0,
            "name" : "Laptop",
            "rotation" : [
                0.7071068286895752,
                0,
                0,
                0.7071067094802856
            ]
        }
    ],
    "materials" : [
        {
            "doubleSided" : true,
            "name" : "Material.001",
            "pbrMetallicRoughness" : {
                "metallicFactor" : 0
            }
        },
        {
            "doubleSided" : true,
            "name" : "Material.003",
            "pbrMetallicRoughness" : {
                "metallicFactor" : 0
            }
        },
        {
            "doubleSided" : true,
            "name" : "Material.002",
            "pbrMetallicRoughness" : {
                "metallicFactor" : 0
            }
        },
        {
            "doubleSided" : true,
            "name" : "Material.004",
            "pbrMetallicRoughness" : {
                "metallicFactor" : 0
            }
        },
        {
            "doubleSided" : true,
            "name" : "Material.005",
            "pbrMetallicRoughness" : {
                "metallicFactor" : 0
            }
        }
    ],
    "meshes" : [
        {
            "name" : "Laptop",
            "primitives" : [
                {
                    "attributes" : {
                        "POSITION" : 0,
                        "NORMAL" : 1,
                        "TANGENT" : 2,
                        "TEXCOORD_0" : 3
                    },
                    "indices" : 4,
                    "material" : 0
                },
                {
                    "attributes" : {
                        "POSITION" : 5,
                        "NORMAL" : 6,
                        "TANGENT" : 7,
                        "TEXCOORD_0" : 8
                    },
                    "indices" : 9,
                    "material" : 1
                },
                {
                    "attributes" : {
                        "POSITION" : 10,
                        "NORMAL" : 11,
                        "TANGENT" : 12,
                        "TEXCOORD_0" : 13
                    },
                    "indices" : 9,
                    "material" : 2
                },
                {
                    "attributes" : {
                        "POSITION" : 14,
                        "NORMAL" : 15,
                        "TANGENT" : 16,
                        "TEXCOORD_0" : 17
                    },
                    "indices" : 18,
                    "material" : 3
                },
                {
                    "attributes" : {
                        "POSITION" : 19,
                        "NORMAL" : 20,
                        "TANGENT" : 21,
                        "TEXCOORD_0" : 22
                    },
                    "indices" : 9,
                    "material" : 4
                }
            ]
        }
    ],
    "accessors" : [
        {
            "bufferView" : 0,
            "componentType" : 5126,
            "count" : 282,
            "max" : [
                0.6000000238418579,
                1.1307200193405151,
                0
            ],
            "min" : [
                -1.100000023841858,
                -1.1307200193405151,
                -1.6678800582885742
            ],
            "type" : "VEC3"
        },
        {
            "bufferView" : 1,
            "componentType" : 5126,
            "count" : 282,
            "type" : "VEC3"
        },
        {
            "bufferView" : 2,
            "componentType" : 5126,
            "count" : 282,
            "type" : "VEC4"
        },
        {
            "bufferView" : 3,
            "componentType" : 5126,
            "count" : 282,
            "type" : "VEC2"
        },
        {
            "bufferView" : 4,
            "componentType" : 5123,
            "count" : 546,
            "type" : "SCALAR"
        },
        {
            "bufferView" : 5,
            "componentType" : 5126,
            "count" : 4,
            "max" : [
                -1.00423002243042,
                0.046491000801324844,
                -1.4961299896240234
            ],
            "min" : [
                -1.00423002243042,
                -0.053509000688791275,
                -1.5641900300979614
            ],
            "type" : "VEC3"
        },
        {
            "bufferView" : 6,
            "componentType" : 5126,
            "count" : 4,
            "type" : "VEC3"
        },
        {
            "bufferView" : 7,
            "componentType" : 5126,
            "count" : 4,
            "type" : "VEC4"
        },
        {
            "bufferView" : 8,
            "componentType" : 5126,
            "count" : 4,
            "type" : "VEC2"
        },
        {
            "bufferView" : 9,
            "componentType" : 5123,
            "count" : 6,
            "type" : "SCALAR"
        },
        {
            "bufferView" : 10,
            "componentType" : 5126,
            "count" : 4,
            "max" : [
                -1.038949966430664,
                1.0712900161743164,
                -0.2517069876194
            ],
            "min" : [
                -1.038949966430664,
                -1.0712900161743164,
                -1.4628499746322632
            ],
            "type" : "VEC3"
        },
        {
            "bufferView" : 11,
            "componentType" : 5126,
            "count" : 4,
            "type" : "VEC3"
        },
        {
            "bufferView" : 12,
            "componentType" : 5126,
            "count" : 4,
            "type" : "VEC4"
        },
        {
            "bufferView" : 13,
            "componentType" : 5126,
            "count" : 4,
            "type" : "VEC2"
        },
        {
            "bufferView" : 14,
            "componentType" : 5126,
            "count" : 1614,
            "max" : [
                -0.04484200105071068,
                1.0769599676132202,
                -0.07163900136947632
            ],
            "min" : [
                -0.8099820017814636,
                -1.0769599676132202,
                -0.09814299643039703
            ],
            "type" : "VEC3"
        },
        {
            "bufferView" : 15,
            "componentType" : 5126,
            "count" : 1614,
            "type" : "VEC3"
        },
        {
            "bufferView" : 16,
            "componentType" : 5126,
            "count" : 1614,
            "type" : "VEC4"
        },
        {
            "bufferView" : 17,
            "componentType" : 5126,
            "count" : 1614,
            "type" : "VEC2"
        },
        {
            "bufferView" : 18,
            "componentType" : 5123,
            "count" : 2442,
            "type" : "SCALAR"
        },
        {
            "bufferView" : 19,
            "componentType" : 5126,
            "count" : 4,
            "max" : [
                0.4700630009174347,
                0.39229899644851685,
                -0.09173800051212311
            ],
            "min" : [
                0.13254299759864807,
                -0.39229899644851685,
                -0.09173800051212311
            ],
            "type" : "VEC3"
        },
        {
            "bufferView" : 20,
            "componentType" : 5126,
            "count" : 4,
            "type" : "VEC3"
        },
        {
            "bufferView" : 21,
            "componentType" : 5126,
            "count" : 4,
            "type" : "VEC4"
        },
        {
            "bufferView" : 22,
            "componentType" : 5126,
            "count" : 4,
            "type" : "VEC2"
        }
    ],
    "bufferViews" : [
        {
            "buffer" : 0,
            "byteLength" : 3384,
            "byteOffset" : 0
        },
        {
            "buffer" : 0,
            "byteLength" : 3384,
            "byteOffset" : 3384
        },
        {
            "buffer" : 0,
            "byteLength" : 4512,
            "byteOffset" : 6768
        },
        {
            "buffer" : 0,
            "byteLength" : 2256,
            "byteOffset" : 11280
        },
        {
            "buffer" : 0,
            "byteLength" : 1092,
            "byteOffset" : 13536
        },
        {
            "buffer" : 0,
            "byteLength" : 48,
            "byteOffset" : 14628
        },
        {
            "buffer" : 0,
            "byteLength" : 48,
            "byteOffset" : 14676
        },
        {
            "buffer" : 0,
            "byteLength" : 64,
            "byteOffset" : 14724
        },
        {
            "buffer" : 0,
            "byteLength" : 32,
            "byteOffset" : 14788
        },
        {
            "buffer" : 0,
            "byteLength" : 12,
            "byteOffset" : 14820
        },
        {
            "buffer" : 0,
            "byteLength" : 48,
            "byteOffset" : 14832
        },
        {
            "buffer" : 0,
            "byteLength" : 48,
            "byteOffset" : 14880
        },
        {
            "buffer" : 0,
            "byteLength" : 64,
            "byteOffset" : 14928
        },
        {
            "buffer" : 0,
            "byteLength" : 32,
            "byteOffset" : 14992
        },
        {
            "buffer" : 0,
            "byteLength" : 19368,
            "byteOffset" : 15024
        },
        {
            "buffer" : 0,
            "byteLength" : 19368,
            "byteOffset" : 34392
        },
        {
            "buffer" : 0,
            "byteLength" : 25824,
            "byteOffset" : 53760
        },
        {
            "buffer" : 0,
            "byteLength" : 12912,
            "byteOffset" : 79584
        },
        {
            "buffer" : 0,
            "byteLength" : 4884,
            "byteOffset" : 92496
        },
        {
            "buffer" : 0,
            "byteLength" : 48,
            "byteOffset" : 97380
        },
        {
            "buffer" : 0,
            "byteLength" : 48,
            "byteOffset" : 97428
        },
        {
            "buffer" : 0,
            "byteLength" : 64,
            "byteOffset" : 97476
        },
        {
            "buffer" : 0,
            "byteLength" : 32,
            "byteOffset" : 97540
        }
    ],
    "buffers" : [
        {
            "byteLength" : 97572,
            "uri" : "Laptop-b86c9600f7c0406bd7785dbe448d2cd2.bin"
        }
    ]
}
